<?xml version="1.0" encoding="UTF-8"?>
<svg id="Layer_2" xmlns="http://www.w3.org/2000/svg" xmlns:xlink="http://www.w3.org/1999/xlink" viewBox="0 0 376.9 86.45">
  <defs>
    <style>
      .cls-1 {
        fill: #f0f0f0;
      }
    </style>
  </defs>
  <g id="Layer_1-2" data-name="Layer_1">
    <g>
      <g>
        <path class="cls-1" d="M106.13,14.26h9.52l14.1,41.47,14-41.47h9.45v49.05h-6.34v-28.95c0-1,.02-2.66.07-4.97.04-2.31.07-4.8.07-7.45l-14,41.37h-6.58l-14.14-41.37v1.5c0,1.2.03,3.03.1,5.49.07,2.46.1,4.27.1,5.43v28.95h-6.34V14.26Z"/>
        <path class="cls-1" d="M164.36,27.55v23.74c0,1.83.28,3.32.85,4.47,1.04,2.14,2.98,3.21,5.82,3.21,4.07,0,6.85-1.87,8.32-5.61.8-2,1.2-4.75,1.2-8.25v-17.56h6.01v35.76h-5.68l.07-5.28c-.77,1.36-1.72,2.5-2.85,3.44-2.25,1.87-4.98,2.8-8.19,2.8-5,0-8.41-1.7-10.22-5.11-.98-1.82-1.47-4.26-1.47-7.31v-24.31h6.14Z"/>
        <path class="cls-1" d="M195.85,52.09c.18,2,.69,3.54,1.53,4.61,1.54,1.94,4.23,2.91,8.04,2.91,2.27,0,4.27-.48,6-1.45,1.73-.97,2.59-2.46,2.59-4.49,0-1.54-.69-2.7-2.07-3.51-.88-.49-2.62-1.06-5.23-1.7l-4.85-1.2c-3.1-.76-5.38-1.6-6.85-2.54-2.62-1.62-3.94-3.87-3.94-6.74,0-3.38,1.23-6.12,3.71-8.21,2.47-2.09,5.79-3.14,9.96-3.14,5.46,0,9.4,1.58,11.81,4.74,1.51,2,2.25,4.16,2.2,6.48h-5.68c-.11-1.35-.6-2.58-1.47-3.69-1.41-1.57-3.86-2.36-7.35-2.36-2.32,0-4.08.43-5.28,1.3-1.2.87-1.79,2.01-1.79,3.43,0,1.55.79,2.79,2.36,3.73.91.55,2.25,1.04,4.01,1.47l4.05.97c4.4,1.05,7.35,2.06,8.84,3.04,2.34,1.54,3.51,3.95,3.51,7.25s-1.22,5.93-3.67,8.25c-2.44,2.31-6.17,3.47-11.17,3.47-5.39,0-9.2-1.21-11.44-3.62s-3.44-5.4-3.6-8.96h5.78Z"/>
        <path class="cls-1" d="M223.73,14.26h6.11v6.81h-6.11v-6.81ZM223.73,27.72h6.11v35.59h-6.11V27.72Z"/>
        <path class="cls-1" d="M259.81,29.45c2.53,1.96,4.05,5.33,4.56,10.12h-5.84c-.36-2.2-1.17-4.03-2.44-5.49-1.27-1.46-3.31-2.19-6.11-2.19-3.83,0-6.57,1.87-8.21,5.6-1.07,2.42-1.6,5.41-1.6,8.97s.76,6.59,2.27,9.04c1.51,2.45,3.9,3.67,7.15,3.67,2.49,0,4.47-.76,5.93-2.28,1.46-1.52,2.46-3.6,3.02-6.24h5.84c-.67,4.74-2.34,8.21-5.01,10.4-2.67,2.19-6.09,3.29-10.25,3.29-4.67,0-8.4-1.71-11.19-5.12-2.78-3.42-4.17-7.68-4.17-12.8,0-6.28,1.52-11.16,4.57-14.66,3.05-3.49,6.93-5.24,11.65-5.24,4.03,0,7.31.98,9.83,2.94Z"/>
        <path class="cls-1" d="M282.7,14.26h7.51l17.8,49.05h-7.28l-4.97-14.69h-19.4l-5.31,14.69h-6.81l18.46-49.05ZM293.62,43.21l-7.45-21.67-7.91,21.67h15.36Z"/>
        <path class="cls-1" d="M310.02,27.72h5.88v4.74c1.21-1.62,2.52-2.88,3.95-3.77,2.03-1.34,4.42-2,7.16-2,4.06,0,7.51,1.55,10.34,4.66,2.83,3.11,4.25,7.54,4.25,13.31,0,7.79-2.04,13.36-6.13,16.69-2.59,2.11-5.61,3.17-9.05,3.17-2.7,0-4.97-.59-6.8-1.77-1.07-.67-2.27-1.81-3.59-3.44v18.26h-6.01V27.72ZM332.63,55.75c1.86-2.35,2.8-5.86,2.8-10.53,0-2.85-.41-5.3-1.24-7.35-1.56-3.94-4.42-5.91-8.58-5.91s-7.04,2.08-8.58,6.24c-.83,2.23-1.24,5.05-1.24,8.48,0,2.76.41,5.11,1.24,7.04,1.56,3.7,4.42,5.54,8.58,5.54,2.81,0,5.15-1.17,7.02-3.52Z"/>
        <path class="cls-1" d="M345.31,27.72h5.88v4.74c1.21-1.62,2.52-2.88,3.95-3.77,2.03-1.34,4.42-2,7.16-2,4.06,0,7.51,1.55,10.34,4.66,2.83,3.11,4.25,7.54,4.25,13.31,0,7.79-2.04,13.36-6.13,16.69-2.59,2.11-5.61,3.17-9.05,3.17-2.7,0-4.97-.59-6.8-1.77-1.07-.67-2.27-1.81-3.59-3.44v18.26h-6.01V27.72ZM367.92,55.75c1.86-2.35,2.8-5.86,2.8-10.53,0-2.85-.41-5.3-1.24-7.35-1.56-3.94-4.42-5.91-8.58-5.91s-7.04,2.08-8.58,6.24c-.83,2.23-1.24,5.05-1.24,8.48,0,2.76.41,5.11,1.24,7.04,1.56,3.7,4.42,5.54,8.58,5.54,2.81,0,5.15-1.17,7.02-3.52Z"/>
      </g>
      <image width="2000" height="2228" transform="scale(.04)" xlink:href="../2000w/musicapplogo.png"/>
    </g>
  </g>
</svg>