<?xml version="1.0" encoding="UTF-8"?>
<svg id="Layer_2" data-name="Layer 2" xmlns="http://www.w3.org/2000/svg" viewBox="0 0 70.08 78.56">
  <defs>
    <style>
      .cls-1 {
        fill: #fff;
        stroke-width: 0px;
      }
    </style>
  </defs>
  <g id="Hi_Fi_Text_Logo" data-name="Hi!Fi Text Logo">
    <path class="cls-1" d="M42.41,0C27.13,0,14.75,12.38,14.75,27.66c0,7.17,2.73,13.71,7.21,18.62L0,73.01l6.77,5.55,22.03-26.81c4.02,2.28,8.66,3.58,13.61,3.58,15.28,0,27.67-12.39,27.67-27.67S57.69,0,42.41,0ZM42.41,46.63c-2.84,0-5.54-.63-7.96-1.76-2.7-1.25-5.06-3.12-6.88-5.43-2.58-3.24-4.12-7.33-4.12-11.78,0-10.45,8.51-18.96,18.96-18.96s18.97,8.51,18.97,18.96-8.51,18.97-18.97,18.97Z"/>
  </g>
</svg>